<?xml version="1.0" ?><svg data-name="Layer 1" id="Layer_1" viewBox="0 0 512 512" xmlns="http://www.w3.org/2000/svg"><path d="M418.45,142.75c0-.15,0-.3,0-.46a10,10,0,0,0-.3-1.82,2.76,2.76,0,0,0-.08-.27,10.24,10.24,0,0,0-.85-2.15s0,0,0,0a10.14,10.14,0,0,0-1.34-1.85c-.09-.1-.17-.2-.26-.29a9.76,9.76,0,0,0-1.71-1.43s-.08-.08-.13-.11-.16-.06-.24-.11a10.13,10.13,0,0,0-2-1l-.06,0h0l-13.56-4.39c-.89,2.28-1.85,4.52-2.95,6.68A28.7,28.7,0,0,1,369.19,151q-1.15,0-2.31-.09l5.64,19.81,25.6-11.87V372.12L266.18,433.3V220l35.06-16.25-6.5-19.42-38.73,18-41.1-19.06-6.5,19.43L245.83,220V433.3l-132-61.18V158.85l23.44,10.87,7.23-19.09a29.83,29.83,0,0,1-4.21.32c-10.79,0-21.07-5.81-26-15.43q-1.47-2.88-2.69-5.93l-11.14,3.65a10.3,10.3,0,0,0-2.12,1c-.06,0-.13,0-.19.09l-.11.1a10.27,10.27,0,0,0-1.76,1.46l-.21.24A10.59,10.59,0,0,0,94.78,138h0a10.06,10.06,0,0,0-.86,2.15c0,.1-.06.2-.08.3a10.13,10.13,0,0,0-.3,1.83c0,.14,0,.29,0,.43s0,.11,0,.17V378.62a10.18,10.18,0,0,0,5.89,9.23l152.31,70.61,0,0a10.31,10.31,0,0,0,1.85.62l.46.1a9.41,9.41,0,0,0,3.86,0l.44-.1a9.79,9.79,0,0,0,1.89-.64h0l152.29-70.62a10.16,10.16,0,0,0,5.89-9.22V142.91S418.45,142.8,418.45,142.75Z"/><rect height="67.32" rx="20.18" width="67.32" x="220.99" y="65.73"/><path d="M207.73,117.21a34.36,34.36,0,0,1-.31-4.34v-27a33.24,33.24,0,0,1,2.13-11.67L164.64,54a34.65,34.65,0,0,0-28.33,4,34.15,34.15,0,0,0-15.66,24.05c-2.65,18.65-.69,34.56,5.8,47.3,3.29,6.44,11.32,9.62,18.72,7.28l12.8-4Z"/><path d="M297.13,130.05a34.11,34.11,0,0,1-4.31,5.75l27.47,82.14,11.25-35.81a6.8,6.8,0,0,1,7.66-4.64l24,4.3-21-37.76Z"/><path d="M212.17,130l-45,14-21.06,37.77,24-4.3a6.81,6.81,0,0,1,7.67,4.64L189,217.94l27.47-82.15A34.54,34.54,0,0,1,212.17,130Z"/><path d="M388.64,82.07A34.06,34.06,0,0,0,373,58a34.8,34.8,0,0,0-29.06-3.71L299.74,74.22a33.4,33.4,0,0,1,2.14,11.69v27a32.87,32.87,0,0,1-.32,4.35l49.76,15.45,12.79,4c7.41,2.34,15.45-.84,18.74-7.29C389.35,116.61,391.3,100.7,388.64,82.07Z"/></svg>